<?xml version="1.0" encoding="utf-8"?>
<!-- Generator: Adobe Illustrator 27.3.1, SVG Export Plug-In . SVG Version: 6.00 Build 0)  -->
<svg version="1.1" baseProfile="tiny" id="Layer_1" xmlns="http://www.w3.org/2000/svg" xmlns:xlink="http://www.w3.org/1999/xlink"
	 x="0px" y="0px" viewBox="0 0 240 240" overflow="visible" xml:space="preserve">
<path fill="#D59E74" d="M13,225.85c-7.17,0-13-5.83-13-13V41.83c0-7.17,5.83-13,13-13h0.49c0.7-0.25,1.49-0.45,2.41-0.58
	l98.81-14.37c1.46-0.21,3.33-0.33,5.28-0.33s3.83,0.12,5.28,0.33l98.81,14.37c0.92,0.13,1.72,0.33,2.41,0.58H227
	c7.17,0,13,5.83,13,13v171.01c0,7.17-5.83,13-13,13H13z"/>
<path fill="#F3BF97" d="M115.59,50.37L16.77,36c-2.44-0.35-2.44-0.93,0-1.28l98.81-14.37c2.44-0.35,6.39-0.35,8.83,0l98.81,14.37
	c2.44,0.35,2.44,0.93,0,1.28l-98.81,14.37C121.98,50.72,118.02,50.72,115.59,50.37z"/>
<path fill="#E2AF82" d="M231.66,220.29H8.34c-1.27,0-2.31-1.03-2.31-2.31V37.66c0-1.27,1.03-2.31,2.31-2.31h223.31
	c1.27,0,2.31,1.03,2.31,2.31v180.33C233.96,219.26,232.93,220.29,231.66,220.29z"/>
<path fill="#FFFFFF" d="M126.09,81.64c-3.09-6.18-8.28-10.53-15.57-13.06c-7.29-2.53-17.36-3.8-30.21-3.8
	c-8.03,0-14.89,0.03-20.57,0.09c-5.68,0.07-10.94,0.22-15.75,0.47c-4.82,0.25-9.95,0.68-15.38,1.3v127.88h34.84v-45.86
	c1.38,0.16,2.56,0.4,3.98,0.54c5.87,0.56,11.77,0.84,17.7,0.84c11.24,0,20.2-1.24,26.88-3.71c6.67-2.47,11.46-6.76,14.36-12.88
	c2.9-6.12,4.36-14.74,4.36-25.85C130.72,96.47,129.17,87.83,126.09,81.64z M102.35,126.18c-3.31,3.31-8.68,3.31-11.99,0l-6.61-6.61
	l-7.27,7.27c-3.31,3.31-8.68,3.31-11.99,0c-3.31-3.31-3.31-8.68,0-11.99l7.27-7.27l-6.61-6.61c-3.31-3.31-3.31-8.68,0-11.98
	c3.31-3.31,8.68-3.31,11.98,0l6.61,6.61l5.96-5.96c3.31-3.31,8.68-3.31,11.98,0c3.31,3.31,3.31,8.68,0,11.99l-5.96,5.96l6.61,6.61
	C105.65,117.51,105.65,122.87,102.35,126.18z"/>
<g>
	<path fill="#FFFFFF" d="M209.98,67.31V192.3H176.1v-82.96c0-2.54,0.06-5.04,0.18-7.52c0.12-2.47,0.48-4.92,1.09-7.34l-29.16,6.52
		l-3.99-21.37l31.88-12.32H209.98z"/>
</g>
<g>
</g>
<g>
</g>
<g>
</g>
<g>
</g>
<g>
</g>
<g>
</g>
</svg>
